<svg data-v-0dd9719b="" version="1.0" xmlns="http://www.w3.org/2000/svg" xmlns:xlink="http://www.w3.org/1999/xlink" width="100%" viewBox="0 0 340.000000 250.000000" preserveAspectRatio="xMidYMid meet" color-interpolation-filters="sRGB" style="margin: auto;">   <g data-v-0dd9719b="" fill="#262626" class="icon-text-wrapper icon-svg-group iconsvg" transform="translate(60.5,89.77384948730469)"><g class="iconsvg-imagesvg" transform="matrix(1,0,0,1,159,0)" opacity="1"><g><rect fill="#262626" fill-opacity="0" stroke-width="2" x="0" y="0" width="60" height="70.45230379033394" class="image-rect"></rect> <svg filter="url(#colors9305131624)" x="0" y="0" width="60" height="70.45230379033394" filtersec="colorsf7965992512" class="image-svg-svg primary" style="overflow: visible;"><svg xmlns="http://www.w3.org/2000/svg" viewBox="12.779865264892578 9.429866790771484 38.44426727294922 45.141273498535156" x="0px" y="0px"><title>x, close, exit, delete</title><g><path d="M41,32l9.924-13.345a1.5,1.5,0,0,0-.308-2.1L41.436,9.727a1.5,1.5,0,0,0-2.1.308L32,19.9l-7.336-9.862a1.5,1.5,0,0,0-2.1-.308l-9.179,6.829a1.5,1.5,0,0,0-.308,2.1L23,32,13.077,45.345a1.5,1.5,0,0,0,.308,2.1l9.179,6.829a1.5,1.5,0,0,0,2.1-.308L32,44.1l7.336,9.862a1.505,1.505,0,0,0,.986.589,1.611,1.611,0,0,0,.218.016,1.5,1.5,0,0,0,.9-.3l9.179-6.829a1.5,1.5,0,0,0,.308-2.1Zm-.151,18.971L33.2,40.694l-1.113-1.471a1,1,0,0,0-1.613.024L22.5,50.488l-6.123-4.556,9.7-13.037a1.5,1.5,0,0,0,0-1.79L16.379,18.068l5.857-4.357h0l8.2,10.961A1,1,0,0,0,32,24.72l1.2-1.414,7.644-10.277,5.8,4.317L36.584,31.406a1,1,0,0,0,.012,1.18l10.33,13.863Z"></path></g></svg></svg> <defs><filter id="colors9305131624"><feColorMatrix type="matrix" values="0 0 0 0 0.99609375  0 0 0 0 0.76171875  0 0 0 0 0  0 0 0 1 0" class="icon-fecolormatrix"></feColorMatrix></filter> <filter id="colorsf7965992512"><feColorMatrix type="matrix" values="0 0 0 0 0.99609375  0 0 0 0 0.99609375  0 0 0 0 0.99609375  0 0 0 1 0" class="icon-fecolormatrix"></feColorMatrix></filter> <filter id="colorsb3176526373"><feColorMatrix type="matrix" values="0 0 0 0 0  0 0 0 0 0  0 0 0 0 0  0 0 0 1 0" class="icon-fecolormatrix"></feColorMatrix></filter></defs></g></g> <g transform="translate(0,17.781150817871094)"><g data-gra="path-name" fill-rule="" class="tp-name iconsvg-namesvg" opacity="1" transform="matrix(1,0,0,1,0,0)"><g transform="scale(1)"><g><path d="M25.68 0L27.69 0 27.69-26.63 25.18-26.63 15.1-11.11 4.91-26.63C3.92-26.63 3.46-26.63 2.47-26.63L2.47 0 4.53 0 4.53-23.66 14.8-8.06 15.48-8.06 25.68-23.66ZM47.25-18.79L42.53-7.72 40.36-2.24 38.15-7.68 33.78-18.79 31.76-18.79 39.3-0.23 35.83 7.84 37.81 7.84 49.26-18.79Z" transform="translate(-2.4700000286102295, 27.049999237060547)"></path></g> <!----> <!----> <!----> <!----> <!----> <!----> <g data-gra="path-name-1" fill="#262626" transform="translate(49.78999710083008,0)"><g transform="scale(1)"><path d="M14.72-27.05C5.74-27.05 1.29-20.5 1.29-13.35 1.29-6.31 5.78 0.46 14.72 0.46 23.66 0.46 28.11-6.28 28.15-13.28 28.19-20.47 23.7-27.05 14.72-27.05ZM14.72-25.14C22.37-25.14 26.17-19.48 26.17-13.31 26.17-7.3 22.33-1.45 14.72-1.45 7.15-1.45 3.35-7.3 3.31-13.31 3.27-19.59 7.08-25.14 14.72-25.14ZM35.15-24.27L35.15-18.79 31.15-18.79 31.15-17.23 35.15-17.23 35.15-5.78C35.15-2.09 36.44 0.27 40.44 0.27 41.62 0.27 42.79-0.11 43.97-0.68L43.33-2.21C42.38-1.75 41.35-1.45 40.44-1.45 37.51-1.45 36.97-3.23 36.97-5.78L36.97-17.23 43.37-17.23 43.37-18.79 36.97-18.79 36.97-24.46ZM56.34 0.27C61.62 0.27 65.88-3.39 65.88-9.36 65.88-15.33 61.62-19.13 56.34-19.13 51.05-19.13 46.79-15.33 46.79-9.36 46.79-3.39 51.05 0.27 56.34 0.27ZM56.34-1.56C52.08-1.56 48.61-4.49 48.61-9.36 48.61-14.23 52.08-17.38 56.34-17.38 60.6-17.38 64.06-14.23 64.06-9.36 64.06-4.49 60.6-1.56 56.34-1.56ZM79.73-17.31C83.95-17.31 87.42-14.68 87.42-9.4 87.42-4.18 83.95-1.52 79.73-1.52 75.32-1.52 72.05-4.75 72.05-9.43 72.05-14.11 75.39-17.31 79.73-17.31ZM70.18-26.63L70.18 0 72.01 0 72.01-4.15C73.57-1.29 76.65 0.3 79.85 0.3 85.1 0.3 89.24-3.16 89.24-9.4 89.24-15.6 85.06-19.1 79.81-19.1 76.57-19.1 73.53-17.73 72.01-14.68L72.01-26.63ZM102.48 0.27C107.77 0.27 112.03-3.39 112.03-9.36 112.03-15.33 107.77-19.13 102.48-19.13 97.19-19.13 92.93-15.33 92.93-9.36 92.93-3.39 97.19 0.27 102.48 0.27ZM102.48-1.56C98.22-1.56 94.76-4.49 94.76-9.36 94.76-14.23 98.22-17.38 102.48-17.38 106.74-17.38 110.2-14.23 110.2-9.36 110.2-4.49 106.74-1.56 102.48-1.56Z" transform="translate(-1.2899999618530273, 27.049999237060547)"></path></g></g></g></g> <!----></g></g><defs v-gra="od"></defs></svg>